<svg enable-background="new 0 0 150 150" viewBox="0 0 150 150" xmlns="http://www.w3.org/2000/svg"><circle cx="75" cy="75" fill="#d8e9f7" r="75"/><path d="m54.9 74.2c-10.8-2.4-22.8-5.2-35.9-8.3-.1 0-.2-.1-.2-.3 0-.1 0-.3.1-.3l24.1-18.2c.1-.1.2-.1.3-.1s12.3 3.3 31.5 6.6c.3-.3.5-.6.7-.8-12.7-1.9-25.1-4.3-32.6-6.8l-27.1 20.2 38.4 8.7c.2-.2.5-.5.7-.7z" fill="#cedd3e"/><path d="m77.2 74.8c9.9-.9 17.5-5.7 17-10.6-.3-3.3-4.3-6-10.3-7-5.2 6-11.3 13-15 17.4 2.6.4 5.4.4 8.3.2z" fill="#94a727"/><path d="m50.8 56.4c-1.1-.5-2.6-.7-4.2-.6-3.1.3-5.6 2-5.4 3.7.1.8.7 1.5 1.8 2s2.6.7 4.2.6c3.1-.3 5.6-2 5.4-3.7 0-.8-.7-1.5-1.8-2z" fill="#94a727"/><path d="m103.6 72.4c1.1.5 2.6.7 4.2.6 3.1-.3 5.6-2 5.4-3.7-.1-.8-.7-1.5-1.8-2s-2.6-.7-4.2-.6c-3.1.3-5.6 2-5.4 3.7 0 .8.7 1.5 1.8 2z" fill="#94a727"/><path d="m130.3 60.5c.1 0 .2.1.3.2s.1.2 0 .3l-10.2 25.7c0 .1-.2.2-.3.2-.1 0-6.9-1-53.1-10-.2.3-.4.5-.6.8l55.9 12.6c3.8-9.3 10.7-27 11.1-30.4-2.4-.2-18.5-1.7-36.7-4-3.3-.4-6.9-.9-10.5-1.4-.3.3-.6.6-.8 1 15.1 2.3 30.2 3.9 44.9 5z" fill="#cedd3e"/><path d="m74.2 54.2c-17.8-3.1-29.5-6.1-30.9-6.5l-23.4 17.6c12.9 3.1 24.9 5.8 35.6 8.3.9-.9 2-2.1 3.3-3.4-.6-.8-.9-1.7-1-2.6-.4-4.6 5.5-9.1 14-10.8 1-1 1.8-1.9 2.4-2.6zm-26.9 8.5c-.3 0-.7 0-1 0-1.3 0-2.5-.2-3.5-.7-1.3-.6-2.1-1.5-2.2-2.5-.2-2.1 2.4-4 6-4.4 1.7-.2 3.3.1 4.5.6 1.3.6 2.1 1.5 2.2 2.5.2 2.2-2.4 4.2-6 4.5z" fill="#cedd3e"/><path d="m67.5 76.3c41.2 8 50.9 9.6 52.4 9.8l9.9-25.1c-14.7-1-29.8-2.7-44.9-5.1-.2.2-.3.4-.5.5 6.1 1.1 10.1 4 10.4 7.5.5 5.3-7.4 10.4-17.6 11.4-1.1.1-2.3.2-3.4.2-1.9 0-3.7-.2-5.5-.5-.2.5-.6.9-.8 1.3zm39.6-10.2c1.7-.2 3.3.1 4.5.6 1.3.6 2.1 1.5 2.2 2.5.2 2.1-2.4 4-6 4.4-.3 0-.7 0-1 0-1.3 0-2.5-.2-3.5-.7-1.3-.6-2.1-1.5-2.2-2.5-.2-2 2.4-3.9 6-4.3z" fill="#cedd3e"/><path d="m58.5 67.5c.1.8.3 1.5.8 2.2 3.7-3.8 8.3-8.5 11.7-12.1-7.7 1.7-12.9 5.8-12.5 9.9z" fill="#94a727"/><path d="m120 97.6c-.1-.1-.1-.3 0-.5 0 0 .1-.1.1-.1s0-.1.1-.1c0-.1-.1-.2-.1-.3s0-.2-.1-.3-.1-.2-.1-.2c0-.1.1-.2.1-.2.1-.1.2-.2.4-.2.4-.2.6-.4.6-.6s-.1-.1-.1-.1c-.1-.1-.3-.3-.3-.5 0-.1 0-.2 0-.2 0-.2 0-.2.1-.6v-.1s.4-1.9 1.1-2.9l-55.9-12.5c-.2.2-.3.4-.3.5-.2.7.4 5.8.9 9.5l53 15.6c-.1-.7-.3-2.2.2-2.8-.1-.5.1-1.1.3-1.6.3-.8.4-1.4 0-1.8z" fill="#b5c933"/><path d="m134.3 66.8c-.2 0-.3-.1-.3-.3 0-.4.1-.8.2-1.1.1-.2.2-.4.2-.6 0 0 0-.1-.1-.2-.1-.2-.2-.5-.1-.8-.6-.5-.3-1.3-.1-1.9.1-.3.2-.5.2-.7 0-.5-.1-.7-.3-1-.9 5.4-10.7 29.4-11.2 30.5 0 .1-.1.2-.2.2-.3.1-.9 1.7-1.2 2.9v.1c-.1.3-.1.3 0 .4v.2s.1.1.1.1c.1.1.3.3.3.6 0 .6-.5.9-.9 1.1 0 0-.1 0-.1.1s0 .1.1.2c0 .1 0 .2.1.3s.1.3-.1.4c0 0-.1.1-.1.1.5.7.2 1.5-.1 2.2-.2.5-.4 1-.3 1.4.1.2 0 .3-.2.4-.2.2-.2 1.2-.1 1.9l14.3-34.8c0-.2.1-.4.2-.6.1-.3.3-.8.2-.9-.2-.1-.3-.2-.5-.2z" fill="#abb833"/><path d="m65 78.5c0-.1.2-.4.5-.8 0 0 0-.1.1-.1.3-.3.6-.8 1-1.2 0 0 0 0 0-.1.4-.5.9-1.1 1.4-1.7 5.1-6.1 14.9-17.4 17.5-20.2-3-.4-6.1-.9-9.2-1.3-1.4 1.4-15 15.5-20.4 21 0 .1-.1.2-.2.2-1.1 1.1-1.8 1.9-2 2-.4.5.1 4.7.8 8.6 0 .2.1.4.1.6l11.2 3.2c-.2-2.1-1.2-9.2-.8-10.2z" fill="#fff"/><path d="m53.3 75.8c.1-.1.2-.2.4-.4l-37.5-8.4c.1.2.2.5.2.7 0 .1 0 .3-.1.4 0 0-.1.1-.1.1 0 .1.1.2.4.4.1.1.2.2.2.3-.1.9.1 1.1.6 1.9l.1.2c.1.1.1.3 0 .4-.2.2-.1.6-.1.8.2.8.8 1.7 1.1 1.8.1 0 .1 0 .1.1l35.3 10.4c-.6-2.9-1.3-7.9-.6-8.7z" fill="#b5c933"/><g style="fill:none;stroke:#3e4147;stroke-width:1.1264;stroke-linecap:round;stroke-linejoin:round;stroke-miterlimit:10"><path d="m65.8 77.8 56.7 12.8s11.3-27.7 11.2-31.1c0 0-68.3-6-90.9-13.8l-27.8 20.7 39.3 8.9"/><path d="m122.5 90.6c-.6.1-1.3 2.4-1.4 3.1-.1.5-.1.3-.1.8 0 .2.4.4.4.7 0 .6-.7.8-1.1 1.1.2.2.1.6.3.8-.1.1-.2.3-.3.4 1 1.1-.7 2.6-.3 3.7-.6.3-.3 2.5-.2 2.8"/><path d="m66.2 88.4 53.8 15.9 14.6-35.7c.1-.7 1-2-.3-2-.1-.6.4-1.1.4-1.6 0-.4-.5-.6 0-1.2-1.1-.6-.1-1.7-.1-2.5.1-.9-.3-1.2-.9-1.7"/><path d="m15.8 66.8c0 .2.2.7.3 1-.5.3-.2.8.3 1.1-.1 1.1.2 1.4.8 2.3-.7.7.6 2.8 1.1 3h-.1l36.1 10.7"/><path d="m86.1 54.1s-20.5 23.3-20.8 24.4 1 10.6 1 10.6l-11.9-3.4s-1.7-8.8-.9-9.6 22.7-23.4 22.7-23.4"/><path d="m55.6 74c-10.4-2.4-22.5-5.1-36.5-8.5l24.1-18.1s12.1 3.2 31.7 6.6"/><path d="m84.8 55.7c13.1 2 28.6 4 45.5 5.1l-10.2 25.7s-6.4-.8-53.3-10"/><ellipse cx="107.5" cy="69.9" rx="6" ry="3.5" transform="matrix(.9956 -.09399769 .09399769 .9956 -6.0938 10.4096)"/><ellipse cx="46.9" cy="58.9" rx="6" ry="3.5" transform="matrix(.9956 -.09399769 .09399769 .9956 -5.3315 4.6734)"/><path d="m68.3 74.8c2.7.5 5.7.6 8.9.3 10.1-.9 17.8-5.9 17.3-11-.3-3.6-4.7-6.4-10.7-7.3"/><path d="m72 57c-8.3 1.6-14.3 6-13.9 10.5.1 1 .5 1.9 1.1 2.7"/></g></svg>